HIERARCHY
ROOT Pelvis
{
	OFFSET 0.000000 0.000000 0.000000
	CHANNELS 6 Xposition Yposition Zposition Xrotation Yrotation Zrotation
	JOINT LeftUpLeg_virtual
	{
		OFFSET 0.000000 0.000000 0.000000
		CHANNELS 3 Xrotation Yrotation Zrotation
		JOINT LeftUpLeg
		{
			OFFSET 18.735201 -5.666702 -4.541200
			CHANNELS 3 Xrotation Yrotation Zrotation
			JOINT LeftLeg
			{
				OFFSET -0.021200 -31.938179 0.493100
				CHANNELS 3 Xrotation Yrotation Zrotation
				JOINT LeftFoot
				{
					OFFSET 0.021200 -31.938179 -4.336299
					CHANNELS 3 Xrotation Yrotation Zrotation
					JOINT LeftToeBase
					{
						OFFSET 0.943001 -26.722000 15.023500
						CHANNELS 3 Xrotation Yrotation Zrotation
						End Site
						{
							OFFSET 0 0 0
						}
					}
				}
			}
		}
	}
	JOINT RightUpLeg_virtual
	{
		OFFSET 0.000000 0.000000 0.000000
		CHANNELS 3 Xrotation Yrotation Zrotation
		JOINT RightUpLeg
		{
			OFFSET -18.735201 -5.666702 -4.541200
			CHANNELS 3 Xrotation Yrotation Zrotation
			JOINT RightLeg
			{
				OFFSET 0.018946 -31.938133 0.493100
				CHANNELS 3 Xrotation Yrotation Zrotation
				JOINT RightFoot
				{
					OFFSET -0.018946 -31.938126 -4.336299
					CHANNELS 3 Xrotation Yrotation Zrotation
					JOINT RightToeBase
					{
						OFFSET -0.943001 -26.722004 15.023500
						CHANNELS 3 Xrotation Yrotation Zrotation
						End Site
						{
							OFFSET 0 0 0
						}
					}
				}
			}
		}
	}
	JOINT Hips_virtual
	{
		OFFSET 0.000000 0.000000 0.000000
		CHANNELS 3 Xrotation Yrotation Zrotation
		JOINT Hips
		{
			OFFSET -0.000000 -0.000000 -0.000000
			CHANNELS 3 Xrotation Yrotation Zrotation
			JOINT Spine
			{
				OFFSET 0.000000 10.199997 -0.299500
				CHANNELS 3 Xrotation Yrotation Zrotation
				JOINT Spine1
				{
					OFFSET 0.000000 11.900002 -1.516600
					CHANNELS 3 Xrotation Yrotation Zrotation
					JOINT Spine2
					{
						OFFSET 0.000000 13.600006 -2.842500
						CHANNELS 3 Xrotation Yrotation Zrotation
						JOINT Neck_virtual
						{
							OFFSET 0.000000 0.000000 0.000000
							CHANNELS 3 Xrotation Yrotation Zrotation
							JOINT Neck
							{
								OFFSET 0.000000 9.624100 -2.890100
								CHANNELS 3 Xrotation Yrotation Zrotation
								JOINT Head
								{
									OFFSET 0.000000 14.068802 -1.351900
									CHANNELS 3 Xrotation Yrotation Zrotation
									End Site
									{
										OFFSET 0 0 0
									}
								}
							}
						}
						JOINT LeftShoulder_virtual
						{
							OFFSET 0.000000 0.000000 0.000000
							CHANNELS 3 Xrotation Yrotation Zrotation
							JOINT LeftShoulder
							{
								OFFSET 15.263000 10.923401 -0.547700
								CHANNELS 3 Xrotation Yrotation Zrotation
								JOINT LeftArm
								{
									OFFSET 25.438599 -2.830597 -13.032500
									CHANNELS 3 Xrotation Yrotation Zrotation
									JOINT LeftForeArm
									{
										OFFSET 29.960503 0.000000 0.000000
										CHANNELS 3 Xrotation Yrotation Zrotation
										JOINT LeftHand
										{
											OFFSET 27.849251 0.000000 0.000000
											CHANNELS 3 Xrotation Yrotation Zrotation
											End Site
											{
												OFFSET 0 0 0
											}
										}
									}
								}
							}
						}
						JOINT RightShoulder_virtual
						{
							OFFSET 0.000000 0.000000 0.000000
							CHANNELS 3 Xrotation Yrotation Zrotation
							JOINT RightShoulder
							{
								OFFSET -15.263000 10.923401 -0.547700
								CHANNELS 3 Xrotation Yrotation Zrotation
								JOINT RightArm
								{
									OFFSET -25.438599 -2.830597 -13.032500
									CHANNELS 3 Xrotation Yrotation Zrotation
									JOINT RightForeArm
									{
										OFFSET -29.960503 0.000000 0.000000
										CHANNELS 3 Xrotation Yrotation Zrotation
										JOINT RightHand
										{
											OFFSET -27.849251 0.000000 0.000000
											CHANNELS 3 Xrotation Yrotation Zrotation
											End Site
											{
												OFFSET 0 0 0
											}
										}
									}
								}
							}
						}
					}
				}
			}
		}
	}
}
MOTION
Frames: 13
Frame Time: 0.03333333
9.178232 80.024635 -8.514225 0.000000 0.000000 0.000000 56.811232 -3.853164 7.698363 -102.017112 -2.907900 7.562750 59.988076 6.827174 -4.838201 -11.594144 11.952363 -4.416033 0.000000 0.000000 0.000000 56.526232 -3.237319 6.574527 -65.370982 7.190324 -9.536091 61.566950 0.816967 -1.937281 11.805669 0.200475 8.625010 0.000000 0.000000 0.000000 56.211989 -2.498113 7.236803 -0.971607 -1.692328 -2.057562 9.675312 2.419400 0.926252 20.668885 2.297409 -2.348304 0.000000 0.000000 0.000000 22.234318 1.236772 -2.615028 -10.271233 -0.241151 1.602149 0.000000 0.000000 0.000000 22.825545 1.029196 -2.846845 3.361276 -12.012453 5.670032 -30.731599 -39.829374 -24.099931 1.000852 -39.843307 -0.957961 0.000000 0.000000 0.000000 23.796587 1.813325 -2.562799 4.071401 29.612439 2.019374 -30.833144 35.212241 13.968286 2.024630 29.093563 -0.280185 0.000000 0.000000 0.000000 
9.016834 82.013954 -7.493443 0.000000 0.000000 0.000000 54.371895 -4.691236 7.128391 -95.913170 -2.997022 7.603086 55.959313 7.237558 -4.700271 -11.799194 12.818089 -4.109254 0.000000 0.000000 0.000000 54.035163 -3.955147 6.021788 -69.389572 7.210871 -8.242647 66.671348 0.510563 -2.165039 6.113578 -1.012565 6.311209 0.000000 0.000000 0.000000 53.796110 -3.264828 6.723654 -0.867404 -1.779057 -2.075506 9.432933 2.403200 1.241529 20.496670 2.246280 -2.125119 0.000000 0.000000 0.000000 22.090737 1.232794 -2.364115 -10.012284 -0.182978 1.541454 0.000000 0.000000 0.000000 22.655683 1.041835 -2.575780 3.286372 -11.673525 4.272987 -28.261491 -38.671810 -26.318210 1.126886 -39.310525 -0.779607 0.000000 0.000000 0.000000 23.587146 1.759633 -2.373292 3.698363 29.238373 3.449803 -28.873378 34.228352 16.840441 2.014124 28.839545 -0.186610 0.000000 0.000000 0.000000 
8.820078 83.718277 -6.554852 0.000000 0.000000 0.000000 51.703538 -5.568960 6.527022 -89.808047 -3.049168 7.928391 52.599714 7.522353 -4.603835 -12.098269 13.369639 -3.950862 0.000000 0.000000 0.000000 51.368948 -4.813117 5.524172 -71.605333 6.960260 -7.451968 68.117033 0.056979 -2.335729 1.545487 -1.945239 4.529026 0.000000 0.000000 0.000000 51.162321 -4.180911 6.254162 -0.782149 -1.730906 -2.050301 9.204033 2.468042 1.497117 20.246752 2.239686 -1.894267 0.000000 0.000000 0.000000 21.859682 1.272441 -2.117169 -9.745189 -0.125589 1.459890 0.000000 0.000000 0.000000 22.437800 1.097012 -2.288693 3.200847 -11.296774 3.004680 -26.167600 -37.613900 -29.042804 1.316328 -38.036251 -0.601198 0.000000 0.000000 0.000000 23.309451 1.761058 -2.166143 3.393241 28.732939 4.618098 -27.064285 32.812721 19.828166 2.025793 28.429467 -0.135279 0.000000 0.000000 0.000000 
8.551816 85.129089 -5.693134 0.000000 0.000000 0.000000 48.836317 -6.400571 5.903238 -83.716071 -2.870416 8.531594 49.703717 7.711588 -4.566176 -12.263367 13.669379 -3.969027 0.000000 0.000000 0.000000 48.581186 -5.631238 5.010644 -71.898765 6.324449 -7.393293 65.701639 -0.233760 -2.245500 -1.425942 -2.418500 3.952693 0.000000 0.000000 0.000000 48.355236 -5.133989 5.799420 -0.711689 -1.505456 -2.053403 9.007337 2.577360 1.669838 19.915498 2.252536 -1.642913 0.000000 0.000000 0.000000 21.517719 1.335882 -1.853393 -9.485008 -0.070700 1.374971 0.000000 0.000000 0.000000 22.150823 1.168642 -1.980499 3.105564 -10.970262 1.903581 -24.426664 -36.613007 -32.091234 1.529784 -36.318011 -0.439391 0.000000 0.000000 0.000000 22.963892 1.792352 -1.928834 3.137741 28.134487 5.600748 -25.376569 30.974788 22.674302 2.058770 27.980751 -0.120807 0.000000 0.000000 0.000000 
8.223631 86.316521 -4.901020 0.000000 0.000000 0.000000 45.838349 -7.047578 5.262593 -77.721030 -2.384990 9.292922 46.965228 7.927766 -4.544733 -12.189233 13.871891 -4.028374 0.000000 0.000000 0.000000 45.673441 -6.402500 4.489142 -70.578086 5.305843 -8.052630 60.109510 -0.275110 -1.752372 -2.993624 -2.538040 4.584147 0.000000 0.000000 0.000000 45.452044 -6.007274 5.335745 -0.660482 -1.266351 -2.125926 8.822311 2.671502 1.763714 19.494970 2.251331 -1.377677 0.000000 0.000000 0.000000 21.076208 1.386278 -1.567370 -9.235640 -0.022978 1.303072 0.000000 0.000000 0.000000 21.795279 1.219859 -1.661227 3.009121 -10.770640 0.998514 -22.939767 -35.636826 -35.183964 1.721504 -34.614227 -0.306644 0.000000 0.000000 0.000000 22.555156 1.810868 -1.663892 2.920213 27.429852 6.445443 -23.808404 28.798424 25.169532 2.120965 27.646521 -0.120559 0.000000 0.000000 0.000000 
7.834033 87.391418 -4.135956 0.000000 0.000000 0.000000 42.766451 -7.467596 4.660229 -71.800328 -1.644434 10.000574 44.161124 8.192465 -4.473315 -11.811561 14.031432 -4.154427 0.000000 0.000000 0.000000 42.673239 -6.964609 3.972210 -68.100066 4.113685 -9.136802 52.575880 -0.155773 -1.031999 -3.364686 -2.309039 6.178409 0.000000 0.000000 0.000000 42.507348 -6.672328 4.865277 -0.613013 -1.079355 -2.232314 8.599811 2.705724 1.799143 19.017762 2.193644 -1.108981 0.000000 0.000000 0.000000 20.582751 1.382569 -1.264022 -8.984206 0.013305 1.257451 0.000000 0.000000 0.000000 21.389272 1.211974 -1.345079 2.924665 -10.708852 0.313268 -21.640978 -34.655649 -38.059006 1.867782 -33.149538 -0.212934 0.000000 0.000000 0.000000 22.118406 1.773330 -1.391785 2.761114 26.630544 7.139741 -22.346043 26.474349 27.258078 2.196997 27.485422 -0.107862 0.000000 0.000000 0.000000 
7.362996 88.390381 -3.348511 0.000000 0.000000 0.000000 39.721430 -7.660540 4.155613 -65.959171 -0.828612 10.515795 41.302700 8.439870 -4.295026 -11.271515 14.115053 -4.439033 0.000000 0.000000 0.000000 39.645720 -7.202751 3.516396 -64.840051 3.157300 -10.279795 44.479230 0.025923 -0.497848 -2.821041 -1.868324 8.090711 0.000000 0.000000 0.000000 39.553779 -7.044662 4.412973 -0.583185 -0.970524 -2.322749 8.317868 2.650524 1.804209 18.523741 2.051786 -0.859891 0.000000 0.000000 0.000000 20.085478 1.297476 -0.964113 -8.716877 0.036756 1.245149 0.000000 0.000000 0.000000 20.948762 1.124678 -1.056531 2.861831 -10.775860 -0.174316 -20.446576 -33.617354 -40.517871 1.937140 -32.000297 -0.172234 0.000000 0.000000 0.000000 21.655670 1.650341 -1.134000 2.666339 25.762859 7.692429 -21.071550 24.282786 29.092426 2.287542 27.452919 -0.074631 0.000000 0.000000 0.000000 
6.863924 89.275131 -2.546846 0.000000 0.000000 0.000000 36.762906 -7.633691 3.775501 -60.355650 -0.060699 10.883427 38.608310 8.583712 -4.028487 -10.725218 14.108335 -4.992066 0.000000 0.000000 0.000000 36.645283 -7.154174 3.146577 -61.051106 2.633371 -11.318570 37.010428 0.214523 -0.307010 -1.970473 -1.320208 9.925934 0.000000 0.000000 0.000000 36.601713 -7.095468 4.010323 -0.635212 -0.913631 -2.312650 7.958372 2.490170 1.805958 18.038654 1.829562 -0.649481 0.000000 0.000000 0.000000 19.629412 1.129655 -0.695933 -8.414216 0.046511 1.264262 0.000000 0.000000 0.000000 20.501369 0.958799 -0.817281 2.822373 -10.930912 -0.514795 -19.331490 -32.536678 -42.505476 1.933528 -31.120469 -0.188321 0.000000 0.000000 0.000000 21.180688 1.444823 -0.915693 2.628716 24.829735 8.111626 -20.038079 22.416980 30.923302 2.396219 27.560590 -0.037358 0.000000 0.000000 0.000000 
6.318967 89.992813 -1.709497 0.000000 0.000000 0.000000 33.861079 -7.445980 3.493957 -55.155181 0.710632 11.240379 36.389711 8.522468 -3.752571 -10.230237 13.980644 -5.927881 0.000000 0.000000 0.000000 33.657915 -6.848304 2.869629 -57.026974 2.479433 -12.233530 31.081384 0.443130 -0.458895 -1.049254 -0.700356 11.560975 0.000000 0.000000 0.000000 33.644733 -6.880461 3.692194 -0.714022 -0.843897 -2.272749 7.516979 2.256560 1.799757 17.586875 1.550739 -0.499242 0.000000 0.000000 0.000000 19.220765 0.904165 -0.485811 -8.067305 0.045275 1.304700 0.000000 0.000000 0.000000 20.053044 0.735290 -0.647830 2.798253 -11.137919 -0.775068 -18.382551 -31.512410 -44.090681 1.872908 -30.379940 -0.240498 0.000000 0.000000 0.000000 20.689043 1.179675 -0.758791 2.636542 23.860667 8.451528 -19.250121 21.011755 32.871375 2.495534 27.718581 -0.011327 0.000000 0.000000 0.000000 
5.720818 90.478760 -0.867495 0.000000 0.000000 0.000000 31.000316 -7.105811 3.254762 -50.527233 1.506125 11.697426 34.769081 8.234615 -3.509587 -9.978046 13.751498 -7.172231 0.000000 0.000000 0.000000 30.717714 -6.394949 2.665604 -52.934472 2.339402 -13.022058 26.837881 0.625718 -0.739375 -0.146323 -0.088356 12.847751 0.000000 0.000000 0.000000 30.705163 -6.470682 3.446168 -0.755962 -0.701632 -2.189772 7.021657 1.994763 1.773028 17.142093 1.262780 -0.424825 0.000000 0.000000 0.000000 18.821770 0.668018 -0.354707 -7.682032 0.035988 1.353174 0.000000 0.000000 0.000000 19.587961 0.497364 -0.557172 2.779977 -11.369156 -1.055285 -17.712391 -30.651437 -45.466442 1.783041 -29.702608 -0.300413 0.000000 0.000000 0.000000 20.154237 0.901383 -0.673546 2.653882 22.867788 8.778635 -18.724846 20.004914 34.926681 2.581342 27.871618 0.006225 0.000000 0.000000 0.000000 
5.076053 90.762863 -0.050310 0.000000 0.000000 0.000000 28.163559 -6.667963 3.031298 -46.438876 2.319779 12.208317 33.583798 7.760779 -3.274551 -10.006497 13.480094 -8.575798 0.000000 0.000000 0.000000 27.860692 -5.916188 2.459970 -48.939962 1.841120 -13.681157 24.070357 0.648274 -0.966941 0.362624 0.362127 13.643308 0.000000 0.000000 0.000000 27.835405 -5.980452 3.251499 -0.779624 -0.564811 -2.070966 6.496302 1.767845 1.716141 16.681163 1.017984 -0.427908 0.000000 0.000000 0.000000 18.391695 0.472328 -0.310857 -7.269238 0.020744 1.391809 0.000000 0.000000 0.000000 19.095853 0.297962 -0.546863 2.756870 -11.564259 -1.411261 -17.435767 -30.042768 -46.774464 1.699196 -29.032416 -0.338223 0.000000 0.000000 0.000000 19.581802 0.666442 -0.667125 2.651043 21.889908 9.158544 -18.415669 19.267667 36.912955 2.622472 27.938300 0.036239 0.000000 0.000000 0.000000 
4.356170 90.944664 0.773548 0.000000 0.000000 0.000000 25.411524 -6.231260 2.810239 -42.700413 3.104921 12.635916 32.520071 7.159190 -2.980710 -10.255975 13.239470 -9.925407 0.000000 0.000000 0.000000 25.114450 -5.473366 2.250278 -45.159373 0.969596 -14.061867 22.538938 0.514193 -1.168516 0.340498 0.565513 13.867996 0.000000 0.000000 0.000000 25.095853 -5.487745 3.074076 -0.687719 -0.524889 -2.056434 5.971063 1.641207 1.632438 16.165765 0.862197 -0.501884 0.000000 0.000000 0.000000 17.884183 0.363744 -0.348501 -6.849865 0.001685 1.409784 0.000000 0.000000 0.000000 18.554533 0.185601 -0.603405 2.729177 -11.663732 -1.861465 -17.607813 -29.696549 -48.134877 1.641876 -28.290268 -0.326911 0.000000 0.000000 0.000000 18.957289 0.517700 -0.725359 2.616559 20.973812 9.590144 -18.273876 18.704570 38.601186 2.615198 27.792352 0.104098 0.000000 0.000000 0.000000 
3.548762 91.119919 1.538267 0.000000 0.000000 0.000000 22.856381 -5.823179 2.608619 -39.194043 3.743258 12.862862 31.323121 6.484194 -2.562103 -10.624598 13.062584 -11.009281 0.000000 0.000000 0.000000 22.584253 -5.036648 2.042723 -41.646348 -0.147368 -14.113524 21.870915 0.219589 -1.421214 -0.274394 0.472210 13.558358 0.000000 0.000000 0.000000 22.550495 -5.042105 2.894130 -0.597093 -0.544650 -2.046170 5.487470 1.645379 1.546432 15.583640 0.821130 -0.620660 0.000000 0.000000 0.000000 17.294577 0.364593 -0.449546 -6.438667 -0.018393 1.398862 0.000000 0.000000 0.000000 17.959709 0.190673 -0.703174 2.702532 -11.596665 -2.390917 -18.174928 -29.482020 -49.626433 1.616794 -27.380108 -0.268167 0.000000 0.000000 0.000000 18.288936 0.490360 -0.826281 2.546522 20.177707 10.018238 -18.310699 18.287304 39.958017 2.568153 27.331653 0.214251 0.000000 0.000000 0.000000 
